#!OML:ASF F:\VICON\USERDATA\INSTALL\rory3\rory3.ASF
:FULLY-SPECIFIED
:DEGREES
1801
root 0.239599 15.5702 -2.28922 7.11977 6.49262 -0.406473
lowerback 31.5628 2.31119 0.640364
upperback 8.12143 3.22935 0.72958
thorax -8.05815 1.53008 -0.747303
lowerneck -12.6411 -1.45676 -9.57041
upperneck -18.4802 0.748829 13.4872
head -3.44623 0.629821 5.88521
rclavicle -2.06736e-014 1.74931e-014
rhumerus 14.3784 16.0638 -82.2489
rradius 125.309
rwrist 28.8222
rhand 16.8157 4.48983
rfingers 7.12502
rthumb 41.5579 -20.2466
lclavicle -2.06736e-014 1.74931e-014
lhumerus 17.7487 -27.3134 80.3162
lradius 120.606
lwrist 1.01409
lhand -9.74876 26.4397
lfingers 7.12502
lthumb 16.2256 55.7807
rfemur -30.2487 5.23678 14.5262
rtibia 40.5897
rfoot -13.0473 -13.2357
rtoes -16.0172
lfemur -31.7307 -11.731 -13.3754
ltibia 36.5137
lfoot -8.61976 3.5754
ltoes -15.4117
1802
root 0.239149 15.5766 -2.27817 7.12489 6.32711 -0.420703
lowerback 31.4714 2.33998 0.439873
upperback 8.0906 3.19577 0.662986
thorax -8.05771 1.51594 -0.691711
lowerneck -12.2108 -2.13266 -9.85065
upperneck -18.88 -0.0890506 14.1575
head -3.51459 0.182785 6.152
rclavicle -3.29983e-014 5.96354e-015
rhumerus 14.2267 16.2074 -82.4183
rradius 125.267
rwrist 28.7955
rhand 17.0444 4.6671
rfingers 7.12502
rthumb 41.7724 -19.9987
lclavicle -3.29983e-014 5.96354e-015
lhumerus 17.5305 -27.3315 80.2432
lradius 120.568
lwrist 0.740806
lhand -10.1077 26.3076
lfingers 7.12502
lthumb 15.8799 55.6765
rfemur -30.1632 5.44927 14.5331
rtibia 40.4631
rfoot -12.9927 -13.3136
rtoes -16.1189
lfemur -31.5709 -11.5971 -13.3803
ltibia 36.3835
lfoot -8.6477 3.6064
ltoes -15.3246
1803
root 0.236633 15.5831 -2.26718 7.13325 6.19862 -0.388161
lowerback 31.424 2.31416 0.251192
upperback 8.03002 3.08919 0.511745
thorax -8.10626 1.467 -0.713645
lowerneck -11.7994 -2.77609 -10.0094
upperneck -19.2377 -0.899371 14.8124
head -3.56374 -0.259039 6.39325
rclavicle 1.35174e-014 3.97569e-016
rhumerus 14.0689 16.3269 -82.6962
rradius 125.214
rwrist 28.746
rhand 17.307 4.84111
rfingers 7.12502
rthumb 42.0186 -19.7427
lclavicle 1.35174e-014 3.97569e-016
lhumerus 17.3211 -27.2571 80.0625
lradius 120.521
lwrist 0.419732
lhand -10.3066 26.2218
lfingers 7.12502
lthumb 15.6883 55.6058
rfemur -30.0715 5.63854 14.4985
rtibia 40.3275
rfoot -12.9547 -13.3762
rtoes -16.1802
lfemur -31.4283 -11.537 -13.4136
ltibia 36.2656
lfoot -8.6926 3.68854
ltoes -14.9544
1804
root 0.234641 15.5897 -2.25478 7.17231 6.08667 -0.364886
lowerback 31.2676 2.2745 0.0234534
upperback 8.02422 2.95604 0.385024
thorax -8.04454 1.40763 -0.670261
lowerneck -11.531 -3.3683 -10.1759
upperneck -19.5481 -1.64339 15.3729
head -3.58182 -0.659278 6.60433
rclavicle -1.49089e-014 2.18663e-014
rhumerus 14.0324 16.5754 -82.8538
rradius 125.181
rwrist 28.7028
rhand 17.3858 4.7243
rfingers 7.12502
rthumb 42.0924 -19.8347
lclavicle -1.49089e-014 2.18663e-014
lhumerus 17.1864 -27.0201 79.914
lradius 120.567
lwrist 0.417351
lhand -10.2448 26.228
lfingers 7.12502
lthumb 15.7479 55.6073
rfemur -30.0135 5.77346 14.4762
rtibia 40.1936
rfoot -12.9054 -13.4102
rtoes -16.0989
lfemur -31.3217 -11.504 -13.4301
ltibia 36.1582
lfoot -8.73169 3.76668
ltoes -14.7461
1805
root 0.235744 15.5955 -2.24307 7.20074 6.01099 -0.468274
lowerback 31.1027 2.19896 -0.0359642
upperback 8.04289 2.83456 0.30656
thorax -7.94508 1.35219 -0.673237
lowerneck -11.3891 -3.96271 -10.4184
upperneck -19.7275 -2.39314 15.8941
head -3.53445 -1.04992 6.809
rclavicle 1.45113e-014 1.11319e-014
rhumerus 14.0368 16.8535 -82.942
rradius 125.091
rwrist 28.6678
rhand 17.2959 4.56032
rfingers 7.12502
rthumb 42.0082 -20.027
lclavicle 1.45113e-014 1.11319e-014
lhumerus 17.0699 -26.8038 79.8015
lradius 120.525
lwrist 0.420986
lhand -10.5271 26.1095
lfingers 7.12502
lthumb 15.4761 55.5101
rfemur -29.9429 5.85493 14.5874
rtibia 40.046
rfoot -12.8951 -13.3886
rtoes -15.7578
lfemur -31.2475 -11.4733 -13.3196
ltibia 36.0727
lfoot -8.75682 3.81835
ltoes -14.8335
